<?xml version="1.0" encoding="UTF-8" standalone="no"?>
<!-- Created with Inkscape (http://www.inkscape.org/) -->

<svg
   width="50"
   height="50"
   viewBox="0 0 50 50"
   version="1.1"
   id="svg1"
   sodipodi:docname="clone.svg"
   inkscape:version="1.3 (0e150ed, 2023-07-21)"
   xmlns:inkscape="http://www.inkscape.org/namespaces/inkscape"
   xmlns:sodipodi="http://sodipodi.sourceforge.net/DTD/sodipodi-0.dtd"
   xmlns="http://www.w3.org/2000/svg"
   xmlns:svg="http://www.w3.org/2000/svg">
  <sodipodi:namedview
     id="namedview1"
     pagecolor="#505050"
     bordercolor="#eeeeee"
     borderopacity="1"
     inkscape:showpageshadow="0"
     inkscape:pageopacity="0"
     inkscape:pagecheckerboard="0"
     inkscape:deskcolor="#505050"
     inkscape:zoom="4.72"
     inkscape:cx="25"
     inkscape:cy="25"
     inkscape:window-width="1312"
     inkscape:window-height="449"
     inkscape:window-x="541"
     inkscape:window-y="478"
     inkscape:window-maximized="0"
     inkscape:current-layer="svg1" />
  <defs
     id="defs1" />
  <g
     id="layer1">
    <ellipse
       style="fill:#e6e6e6;stroke:none;stroke-width:2.5;stroke-dasharray:none;fill-opacity:1"
       id="path6"
       cx="25"
       cy="25"
       rx="24.152542"
       ry="23.728813" />
    <path
       d="m 20.441406,7.4150391 c -0.29102,0 -0.52539,0.2343709 -0.52539,0.5253907 v 4.3476562 h 9.642578 c 0.29102,0 0.52539,0.234371 0.52539,0.525391 v 24.898437 h 10.492188 c 0.29102,0 0.52539,-0.234371 0.52539,-0.52539 V 7.9404298 c 0,-0.2910198 -0.23437,-0.5253907 -0.52539,-0.5253907 z"
       style="fill:#ffffff;stroke:#999999;stroke-width:2.5"
       id="path5" />
    <path
       d="m 9.4238283,12.288086 c -0.2910201,0 -0.5253906,0.234371 -0.5253906,0.525391 V 42.05957 c 0,0.291021 0.2343706,0.525391 0.5253906,0.525391 H 29.558594 c 0.29102,0 0.52539,-0.23437 0.52539,-0.525391 V 12.813477 c 0,-0.29102 -0.23437,-0.525391 -0.52539,-0.525391 z"
       style="fill:#ffffff;stroke:#b3b3b3;stroke-width:2.5"
       id="path4" />
  </g>
</svg>
