<?xml version="1.0" encoding="UTF-8" standalone="no"?>
<!-- Created with Inkscape (http://www.inkscape.org/) -->

<svg
   width="50"
   height="50"
   viewBox="0 0 50 50"
   version="1.1"
   id="svg1"
   xmlns="http://www.w3.org/2000/svg"
   xmlns:svg="http://www.w3.org/2000/svg">
  <defs
     id="defs1" />
  <g
     id="layer1">
    <path
       id="path1"
       style="fill:#b3b3b3;stroke-width:1"
       d="M 24.999999,0 A 25.001107,25.001107 0 0 0 20.415495,0.47497028 L 18.354535,8.958367 10.891293,4.4110346 A 25.001107,25.001107 0 0 0 4.411036,10.891294 l 4.5473303,7.463239 -8.48339518,2.060963 A 25.001107,25.001107 0 0 0 0,25 25.001107,25.001107 0 0 0 0.47497112,29.584502 L 8.9583663,31.645464 4.411036,39.108706 a 25.001107,25.001107 0 0 0 6.480257,6.480257 l 7.463242,-4.547333 2.06096,8.483397 a 25.001107,25.001107 0 0 0 4.584504,0.47497 25.001107,25.001107 0 0 0 4.584504,-0.47497 l 2.06096,-8.483397 7.463242,4.547333 a 25.001107,25.001107 0 0 0 6.480257,-6.480257 l -4.547333,-7.463242 8.483398,-2.060962 A 25.001107,25.001107 0 0 0 49.999999,25 25.001107,25.001107 0 0 0 49.57459,20.427885 l -8.532961,-2.073352 4.567984,-7.49628 A 25.001107,25.001107 0 0 0 39.141746,4.3903849 L 31.645463,8.958367 29.572111,0.42540913 A 25.001107,25.001107 0 0 0 24.999999,0 Z m 0,16.714852 A 8.2831283,8.2831283 0 0 1 33.285147,25 8.2831283,8.2831283 0 0 1 24.999999,33.285145 8.2831283,8.2831283 0 0 1 16.714852,25 8.2831283,8.2831283 0 0 1 24.999999,16.714852 Z" />
  </g>
</svg>
