<?xml version="1.0" encoding="UTF-8" standalone="no"?>
<!-- Created with Inkscape (http://www.inkscape.org/) -->

<svg
   width="50"
   height="50"
   viewBox="0 0 50 50"
   version="1.1"
   id="svg1"
   xmlns="http://www.w3.org/2000/svg"
   xmlns:svg="http://www.w3.org/2000/svg">
  <defs
     id="defs1" />
  <g
     id="layer1">
    <path
       id="path3"
       style="fill:#b3b3b3;stroke:none;stroke-width:2;stroke-dasharray:none"
       d="M 25 2.8144531 C 12.758636 2.8144531 2.8144531 12.758636 2.8144531 25 C 2.8144531 37.241364 12.758636 47.185547 25 47.185547 C 37.241364 47.185547 47.185547 37.241364 47.185547 25 C 47.185547 12.758636 37.241364 2.8144531 25 2.8144531 z M 25 4.8144531 C 36.160486 4.8144531 45.185547 13.839514 45.185547 25 C 45.185547 28.374924 44.356563 31.551851 42.896484 34.345703 A 21.186441 22.033897 0 0 0 35.060547 26.587891 A 13.983051 13.983051 0 0 1 25 30.90625 A 13.983051 13.983051 0 0 1 14.976562 26.625 A 21.186441 22.033897 0 0 0 7.1191406 34.376953 C 5.6489741 31.575651 4.8144531 28.387379 4.8144531 25 C 4.8144531 13.839514 13.839514 4.8144531 25 4.8144531 z M 25 5.90625 A 11.016949 11.016949 0 0 0 13.982422 16.923828 A 11.016949 11.016949 0 0 0 25 27.941406 A 11.016949 11.016949 0 0 0 36.017578 16.923828 A 11.016949 11.016949 0 0 0 25 5.90625 z " />
  </g>
</svg>
